<svg version="1.1" id="Layer_1" xmlns="http://www.w3.org/2000/svg" xmlns:xlink="http://www.w3.org/1999/xlink" x="0px" y="0px"
	 width="100%" viewBox="0 0 1024 1024" enable-background="new 0 0 1024 1024" xml:space="preserve">
<path fill="#13161B" opacity="1.000000" stroke="none" 
	d="
M597.000000,1025.000000 
	C398.000000,1025.000000 199.500000,1025.000000 1.000000,1025.000000 
	C1.000000,683.666687 1.000000,342.333344 1.000000,1.000000 
	C342.333344,1.000000 683.666687,1.000000 1025.000000,1.000000 
	C1025.000000,342.333344 1025.000000,683.666687 1025.000000,1025.000000 
	C882.500000,1025.000000 740.000000,1025.000000 597.000000,1025.000000 
M671.947205,534.953796 
	C671.947205,534.953796 671.960449,534.781006 671.394287,534.976196 
	C671.152527,535.283325 670.910767,535.590454 670.093750,536.192444 
	C644.877075,560.648987 619.660400,585.105469 594.220703,609.778320 
	C595.429260,610.453796 595.703308,610.740906 595.977722,610.741333 
	C619.949524,610.778625 643.921509,610.836731 667.892578,610.712891 
	C669.469910,610.704712 671.328186,609.613037 672.569519,608.488586 
	C687.364685,595.085999 702.101013,581.617737 716.781555,568.089539 
	C724.958923,560.554016 733.003174,552.873962 741.684448,545.049622 
	C742.402161,544.349792 743.119934,543.649963 744.359131,542.642334 
	C744.887451,542.036987 745.415771,541.431641 746.554260,540.574951 
	C748.966736,538.377563 751.379272,536.180237 754.359009,533.715759 
	C755.181213,532.791626 756.003418,531.867432 757.433350,530.635864 
	C760.023254,528.116089 762.613159,525.596313 765.778809,522.879700 
	C766.344604,522.309082 766.910339,521.738525 768.033813,520.853943 
	C773.463623,515.948242 778.762878,510.886139 784.376587,506.200745 
	C787.328491,503.736969 787.426025,502.283813 784.482239,499.615906 
	C770.559509,486.997925 756.908508,474.080750 743.036743,461.405731 
	C737.567810,456.408630 731.776733,451.764099 725.925903,446.333893 
	C719.461243,440.172546 713.070129,433.931763 706.515564,427.867645 
	C695.412476,417.595428 684.251221,407.384583 672.987976,397.289001 
	C671.533203,395.985046 669.331116,394.790497 667.466919,394.777893 
	C644.839050,394.625244 622.209534,394.696625 599.580566,394.738983 
	C598.074158,394.741791 596.568176,394.980957 594.658386,395.144836 
	C595.388184,396.178375 595.609741,396.626495 595.948608,396.952728 
	C615.831482,416.095825 635.724121,435.228821 655.896790,454.264130 
	C655.896790,454.264130 655.798401,453.983002 655.851624,454.693359 
	C656.220581,454.984772 656.589478,455.276184 657.262634,456.102844 
	C673.016785,471.435028 688.770996,486.767242 704.512756,502.087341 
	C697.978088,508.678711 691.943970,514.765259 685.301025,521.129578 
	C681.159668,525.381348 677.018311,529.633118 672.938354,533.913025 
	C672.938354,533.913025 672.950806,533.846558 672.409424,534.024841 
	C672.197693,534.329895 671.986023,534.634949 671.947205,534.953796 
M535.113159,470.162140 
	C530.481140,471.827026 529.156128,475.407745 530.208069,479.757507 
	C531.218445,483.935333 534.468811,485.452667 538.601379,485.135468 
	C542.777344,484.814911 544.760132,482.158142 545.361572,478.344269 
	C546.217896,472.914215 542.817505,469.965698 535.113159,470.162140 
M517.806274,496.550537 
	C514.100220,494.243683 510.469788,494.386017 507.546082,497.640076 
	C504.976471,500.500000 504.821289,504.008240 506.934204,507.259216 
	C509.004547,510.444672 512.280151,510.999481 515.687073,510.108551 
	C521.252075,508.653259 522.432983,502.797882 517.806274,496.550537 
M545.665161,533.149597 
	C546.202759,531.954346 546.944641,530.807434 547.241089,529.555115 
	C548.297485,525.091980 545.947327,521.537781 541.557251,520.729980 
	C536.749329,519.845337 532.782959,522.790344 532.405701,527.525024 
	C532.072388,531.707886 535.286377,535.531372 539.553955,535.455750 
	C541.418823,535.422729 543.264221,534.292725 545.665161,533.149597 
M516.825562,561.375488 
	C520.464722,560.282288 522.784485,557.786377 522.120483,554.064758 
	C521.679260,551.592041 520.219788,548.278076 518.270081,547.368408 
	C516.065063,546.339539 512.050781,546.635132 510.209351,548.098694 
	C508.368439,549.561829 507.251923,553.309143 507.580261,555.825073 
	C508.152924,560.213196 511.832397,561.755066 516.825562,561.375488 
M520.636963,452.901276 
	C520.930908,449.055115 520.390320,445.579163 516.256470,443.938446 
	C512.254089,442.349945 507.741821,444.082062 506.343140,447.859558 
	C504.940552,451.647430 505.395935,455.116760 509.219727,457.312683 
	C513.324341,459.669983 517.734009,458.140167 520.636963,452.901276 
M529.004578,427.420258 
	C530.272827,429.567108 531.051270,432.419128 532.912659,433.712128 
	C536.640625,436.301636 541.895752,434.211151 543.653198,430.098541 
	C545.411438,425.983978 543.331909,421.203827 539.273499,420.031067 
	C533.779236,418.443329 530.341919,420.642517 529.004578,427.420258 
M460.310211,513.095642 
	C465.936371,513.532898 469.088104,511.812805 469.775665,507.540466 
	C470.421906,503.525146 469.089417,500.334778 464.870026,499.031830 
	C461.045349,497.850708 457.998627,498.995544 456.068115,502.522827 
	C453.901611,506.481354 455.142853,509.902893 460.310211,513.095642 
M518.124146,585.651855 
	C522.087341,582.512573 522.983093,578.811157 520.608887,574.873840 
	C518.390564,571.194946 514.779419,571.074280 511.347260,572.125122 
	C507.355408,573.347595 506.343842,576.860962 506.996338,580.591064 
	C507.805542,585.217041 511.162750,586.611633 515.485535,586.272522 
	C516.143921,586.220947 516.795898,586.086426 518.124146,585.651855 
M475.242798,577.818176 
	C478.857635,575.948425 480.430420,572.716980 478.930603,569.188599 
	C478.011444,567.026306 475.376129,564.590515 473.198578,564.243958 
	C470.951721,563.886414 467.232635,565.258423 466.151245,567.066223 
	C464.894379,569.167358 464.668518,573.565430 466.061249,575.145752 
	C467.799133,577.117737 471.644897,577.232117 475.242798,577.818176 
M490.229187,537.475342 
	C495.733948,537.773315 499.026428,535.886169 499.615814,531.697815 
	C500.148407,527.912781 498.813324,524.591919 495.030884,523.330200 
	C491.263184,522.073425 487.790070,522.972900 485.801849,526.908508 
	C483.719513,531.030518 484.900116,534.182312 490.229187,537.475342 
M445.221405,546.925049 
	C448.490631,544.896057 449.838257,541.758118 448.299042,538.430847 
	C447.338440,536.354370 444.814148,533.764954 442.888885,533.678040 
	C440.372955,533.564209 436.807465,535.058899 435.465820,537.053650 
	C434.278717,538.818604 434.732544,542.629944 435.872559,544.795105 
	C437.554871,547.990234 440.966248,548.721375 445.221405,546.925049 
M476.513031,422.201965 
	C476.162689,422.954102 475.747040,423.683289 475.472992,424.462280 
	C474.083740,428.411530 475.522736,431.468231 479.013000,433.237335 
	C482.192780,434.849030 485.616821,434.671844 488.067230,431.678467 
	C490.583435,428.604614 490.456573,425.155304 488.170441,421.989288 
	C485.912262,418.862122 481.493286,418.817688 476.513031,422.201965 
M483.121521,468.160248 
	C482.148987,468.778259 481.016418,469.240112 480.233063,470.042786 
	C477.598633,472.742126 477.609070,477.255524 480.121460,479.938171 
	C482.557129,482.538910 488.048370,483.197510 490.611481,480.901428 
	C493.575897,478.245758 494.356628,474.452515 491.861115,471.596802 
	C490.120056,469.604401 486.622742,469.146698 483.121521,468.160248 
M601.075745,475.512543 
	C598.956787,471.175201 595.389160,470.087280 591.185364,471.724854 
	C587.693604,473.085052 586.173523,476.096222 587.159973,479.778839 
	C588.257141,483.874634 591.353943,485.516968 595.444397,485.244843 
	C599.723328,484.960205 601.605042,482.011810 601.075745,475.512543 
M576.052490,474.749481 
	C571.534424,470.071594 564.787292,470.234924 563.213318,475.435364 
	C562.500427,477.790771 563.098999,481.881317 564.729675,483.259583 
	C566.646912,484.880035 570.697815,485.464783 573.164368,484.605927 
	C577.098450,483.236084 577.700684,479.377563 576.052490,474.749481 
M429.657135,475.252106 
	C428.610291,479.409882 429.953613,482.485718 434.022217,483.959961 
	C437.815979,485.334656 441.705231,483.517853 443.076630,480.037384 
	C444.560547,476.271332 443.199158,472.458893 439.759583,470.748505 
	C435.958435,468.858398 432.807037,470.068939 429.657135,475.252106 
M563.427002,421.188934 
	C561.819031,423.258484 559.190613,425.197479 558.904114,427.436157 
	C558.643005,429.476990 560.440491,433.089600 562.195923,433.766876 
	C564.693481,434.730652 568.762878,434.644257 570.700562,433.133575 
	C572.427429,431.787262 573.119202,427.689789 572.572754,425.174683 
	C571.687195,421.098511 567.875854,420.567719 563.427002,421.188934 
M617.168091,471.579132 
	C613.739868,472.590454 611.255127,474.870758 612.043945,478.412567 
	C612.573669,480.791382 614.496399,483.838409 616.548767,484.627045 
	C618.639038,485.430237 622.497314,484.648010 624.023682,483.061371 
	C625.575012,481.448761 626.044250,477.828156 625.515137,475.408844 
	C624.728394,471.811859 621.290344,471.147827 617.168091,471.579132 
M561.630066,498.162720 
	C559.124939,500.903351 558.093079,504.396149 560.510376,507.111237 
	C562.189758,508.997528 565.726929,510.469452 568.123169,510.101410 
	C570.189514,509.784027 572.558289,506.876740 573.387939,504.601898 
	C573.982178,502.972382 572.775391,499.196869 571.456055,498.669128 
	C568.722290,497.575470 565.378296,498.007172 561.630066,498.162720 
M542.219421,560.362488 
	C546.772400,559.613464 548.981812,556.810852 548.397400,552.351501 
	C547.853210,548.199524 544.917480,546.585266 540.870911,546.800110 
	C536.512695,547.031616 534.479736,549.936707 534.448059,553.678040 
	C534.412476,557.872559 536.954407,560.406128 542.219421,560.362488 
M595.913330,509.462555 
	C599.841187,506.171844 600.798889,502.346344 598.122620,499.229553 
	C595.572083,496.259155 592.160034,495.482941 588.730652,497.504028 
	C585.134094,499.623596 584.710999,503.123138 586.319519,506.638245 
	C588.111877,510.554932 591.650330,510.572083 595.913330,509.462555 
M397.342285,546.901123 
	C391.477020,550.550598 390.375610,556.842896 395.512421,559.348145 
	C397.711456,560.420593 401.758423,560.302246 403.535309,558.905457 
	C405.285095,557.529846 406.064941,553.753967 405.768066,551.206299 
	C405.285065,547.061584 401.529694,546.769653 397.342285,546.901123 
M414.870697,508.912170 
	C412.493591,504.239136 409.013123,502.419983 405.068573,503.876373 
	C401.220612,505.297058 400.413177,508.477448 401.026794,511.984070 
	C401.706177,515.866272 404.515656,517.407471 408.299377,517.225891 
	C413.059753,516.997437 414.989288,514.216553 414.870697,508.912170 
M597.819214,457.416931 
	C600.044861,454.080200 600.258911,450.322418 597.111877,448.032196 
	C595.109680,446.575104 591.421448,446.209961 588.937866,446.921356 
	C585.054932,448.033661 583.999512,452.873657 586.087708,456.537933 
	C588.250183,460.332611 592.515808,460.867828 597.819214,457.416931 
M564.309021,585.584351 
	C568.788208,586.688049 572.505615,585.600464 573.821899,580.928284 
	C574.790161,577.491577 573.567383,574.321167 569.876404,572.774109 
	C566.144409,571.209839 562.840088,571.949524 560.835266,575.472534 
	C558.583618,579.429199 559.765259,582.817749 564.309021,585.584351 
M559.024597,451.014282 
	C559.005615,452.000977 558.848816,453.008118 558.991516,453.970856 
	C559.620361,458.213196 563.502869,460.852783 567.633423,459.924164 
	C571.606628,459.030884 573.972717,455.262177 573.050171,451.296417 
	C572.160400,447.471466 568.091309,444.994629 564.197327,446.425720 
	C562.348022,447.105377 560.925354,448.945801 559.024597,451.014282 
M356.764648,529.515320 
	C355.053589,534.097473 357.141785,537.006653 361.282288,538.309265 
	C364.658752,539.371460 368.012024,538.652344 369.585785,534.929810 
	C371.081238,531.392517 370.705719,528.083679 367.132172,525.836182 
	C363.556061,523.587036 360.178284,524.648499 356.764648,529.515320 
M560.571777,531.610962 
	C564.898193,536.794189 571.997375,536.914246 573.663208,531.537903 
	C574.355896,529.302063 573.748962,525.384460 572.185059,524.061401 
	C570.346741,522.506165 566.589905,522.052246 564.091614,522.719055 
	C560.402527,523.703674 559.698853,527.257141 560.571777,531.610962 
M615.497009,535.153015 
	C619.453552,536.492676 622.830078,535.693604 624.676392,531.811646 
	C626.228394,528.548279 625.708557,525.283203 622.531677,523.061768 
	C619.485901,520.932068 614.953552,521.771118 612.762878,524.644592 
	C610.129700,528.098450 610.754700,531.185608 615.497009,535.153015 
M620.547180,510.018616 
	C624.095093,508.569916 626.078674,505.759613 624.936890,502.206177 
	C624.260803,500.102325 621.901062,497.464508 619.943542,497.127472 
	C617.646973,496.732056 614.303528,497.938751 612.664734,499.648987 
	C611.402771,500.966003 611.381348,504.354950 612.040283,506.431641 
	C613.154663,509.943787 616.404663,510.595825 620.547180,510.018616 
M598.052063,558.479797 
	C600.595276,555.485596 600.792603,551.961487 598.071594,549.526855 
	C596.293091,547.935547 592.695007,546.890564 590.572144,547.593933 
	C588.491211,548.283203 586.455139,551.310730 585.905212,553.663940 
	C585.521790,555.304871 587.297485,558.780701 588.783386,559.236145 
	C591.427856,560.046814 594.583496,559.189819 598.052063,558.479797 
M560.927124,601.326904 
	C560.788940,602.306458 560.456970,603.304016 560.546082,604.262451 
	C560.937683,608.474121 564.346252,611.152100 568.436462,610.582031 
	C572.522522,610.012573 575.176575,606.371704 574.363464,602.451294 
	C573.545349,598.506836 569.126953,595.820557 565.250549,597.279358 
	C563.678467,597.870972 562.482544,599.462158 560.927124,601.326904 
M588.409424,534.078918 
	C589.490051,534.441467 590.707153,535.313232 591.624634,535.067200 
	C594.003662,534.429321 597.165466,533.905945 598.297729,532.198181 
	C599.469666,530.430786 599.593567,526.598206 598.397827,524.995728 
	C597.056641,523.198364 593.685547,522.005554 591.263428,522.107666 
	C585.591003,522.346985 584.097839,527.881775 588.409424,534.078918 
M560.167480,555.963989 
	C561.429016,559.645264 564.310730,561.614441 567.812012,560.685547 
	C570.118103,560.073730 572.756592,557.850586 573.652588,555.688477 
	C574.377869,553.938232 573.428345,550.098999 571.961609,549.164978 
	C569.805908,547.792175 565.988525,547.094360 563.884644,548.137390 
	C561.914856,549.113953 561.253967,552.730408 560.167480,555.963989 
M454.700684,454.871063 
	C458.823578,456.590240 462.248383,455.915222 464.242706,451.655762 
	C465.852142,448.218353 465.158997,445.040924 461.789948,443.061829 
	C458.416107,441.079865 454.908875,441.267303 452.452637,444.561615 
	C449.750000,448.186371 450.291260,451.682190 454.700684,454.871063 
M675.030212,507.540100 
	C677.051514,502.184601 676.034668,498.522583 672.128601,497.090393 
	C668.240051,495.664581 663.688538,497.394440 662.964966,501.303436 
	C662.557068,503.506897 663.328979,506.744141 664.828369,508.310913 
	C667.713196,511.325439 671.396790,510.668365 675.030212,507.540100 
M598.888855,425.474030 
	C595.954529,420.915894 592.244202,419.552460 588.659790,421.905731 
	C585.542542,423.952240 584.186035,426.865143 585.732971,430.471741 
	C587.259583,434.030823 590.151245,435.177704 593.886108,434.330048 
	C598.318176,433.324249 599.753662,430.441681 598.888855,425.474030 
M404.594879,441.994965 
	C399.781891,442.362091 397.993347,445.421600 398.224243,449.739685 
	C398.452087,454.000671 401.450348,455.769409 405.318359,455.794800 
	C408.883453,455.818207 411.228485,453.802917 411.861359,450.215149 
	C412.595062,446.055969 410.260254,443.176086 404.594879,441.994965 
M640.567749,484.202454 
	C646.227966,485.756317 650.476624,484.210693 650.621155,479.826630 
	C650.703125,477.339905 649.209656,473.865265 647.257629,472.471619 
	C644.480225,470.488586 640.579468,471.008026 638.348694,474.132050 
	C635.889587,477.576019 636.571228,481.041016 640.567749,484.202454 
M426.490814,586.464172 
	C431.699005,586.519287 433.675049,582.311401 433.115509,578.539795 
	C432.555115,574.762207 429.080719,572.323669 425.100006,572.961731 
	C421.390625,573.556335 419.710876,576.298645 419.476868,579.570435 
	C419.180511,583.713623 421.840881,585.837585 426.490814,586.464172 
M618.394531,459.851685 
	C621.794495,459.317230 624.931824,457.856415 624.717590,454.095734 
	C624.579834,451.676575 623.169800,448.303101 621.290283,447.294098 
	C619.348877,446.251862 615.654236,446.786407 613.657532,448.074402 
	C612.081055,449.091278 610.697632,452.861969 611.410217,454.396210 
	C612.472961,456.684204 615.455750,458.080322 618.394531,459.851685 
M380.639282,489.186646 
	C385.993256,485.654541 386.642731,479.338867 381.565948,477.188354 
	C379.414062,476.276733 375.698608,476.419037 374.023712,477.752625 
	C372.313538,479.114288 371.202332,482.739288 371.670197,484.990814 
	C372.485291,488.913544 376.007477,490.008118 380.639282,489.186646 
M520.805786,609.293335 
	C521.554993,608.440063 522.544861,607.700012 523.009155,606.712769 
	C524.512390,603.516235 524.370300,599.836792 521.159424,598.471008 
	C518.594910,597.380127 514.503723,597.431763 512.183350,598.812927 
	C509.058411,600.672913 509.235535,604.621155 511.362000,607.670959 
	C513.563110,610.827881 516.759155,611.123535 520.805786,609.293335 
M329.111664,502.408203 
	C333.824219,500.681885 335.785156,497.365021 334.249634,493.499329 
	C332.806793,489.866943 329.871552,488.511230 326.243134,489.265808 
	C322.724396,489.997620 320.913635,492.514893 321.116608,496.157928 
	C321.367401,500.658752 324.112885,502.484955 329.111664,502.408203 
M534.461609,577.836243 
	C535.389893,579.961731 535.781982,582.699402 537.360779,584.082275 
	C540.416565,586.759094 545.192200,585.578735 547.261230,582.289124 
	C549.389282,578.905579 548.065247,574.519836 544.363708,572.691528 
	C540.319824,570.693970 536.990906,572.212708 534.461609,577.836243 
M594.002014,585.305847 
	C595.656189,584.121582 598.552795,583.072937 598.700012,581.724243 
	C598.986755,579.097900 598.584900,575.249329 596.880310,573.871399 
	C595.133301,572.459167 590.913818,572.409912 588.847229,573.609131 
	C587.099365,574.623535 585.969666,578.363220 586.199829,580.738525 
	C586.549194,584.344421 589.640198,585.714600 594.002014,585.305847 
M546.776001,608.344299 
	C548.904724,605.028625 549.350952,601.273254 546.080933,599.005371 
	C544.089661,597.624451 539.999939,597.179932 538.101074,598.346619 
	C536.226257,599.498474 534.890625,603.317749 535.150757,605.772583 
	C535.653625,610.516541 540.778931,611.703857 546.776001,608.344299 
M624.830261,555.937195 
	C625.536987,551.663208 624.516663,548.181763 619.808350,547.273010 
	C616.005127,546.538818 612.418518,547.898926 611.958862,552.015930 
	C611.689148,554.431763 612.898499,557.869019 614.680298,559.465637 
	C617.675476,562.149597 621.607544,560.664246 624.830261,555.937195 
M639.531189,508.938690 
	C643.365784,510.894165 646.996460,510.820862 649.580994,507.066040 
	C651.753052,503.910278 651.289429,499.990051 648.135803,498.396210 
	C645.701538,497.165894 641.292358,497.144562 639.164795,498.615601 
	C635.657898,501.040466 635.790283,505.102783 639.531189,508.938690 
M325.654053,567.912415 
	C329.359039,566.534851 331.036560,563.628235 329.699219,560.137390 
	C328.907227,558.070007 326.595703,555.786438 324.508118,555.179260 
	C320.105591,553.898804 316.572998,556.917969 316.293823,561.283325 
	C316.000702,565.866760 318.783417,568.051697 325.654053,567.912415 
M575.709045,401.501373 
	C575.015808,397.471924 572.981628,394.287628 568.596497,395.158203 
	C566.160034,395.641876 563.087952,397.708801 562.148315,399.866180 
	C560.601440,403.417664 562.468872,406.663269 566.418640,407.939606 
	C570.777039,409.347961 573.871521,407.330383 575.709045,401.501373 
M546.160767,406.479950 
	C546.414185,403.598633 547.569824,400.353088 546.605103,397.963531 
	C545.957458,396.359344 542.108459,394.932831 540.054260,395.325043 
	C538.003540,395.716583 535.633972,398.185944 534.852295,400.283936 
	C534.233887,401.943787 535.283020,405.781036 536.515503,406.256561 
	C539.236389,407.306366 542.540161,406.845642 546.160767,406.479950 
M497.222839,602.093506 
	C496.124878,597.926147 493.080658,596.580750 489.258087,597.226624 
	C486.079315,597.763611 484.003662,599.826111 483.874359,603.341980 
	C483.718811,607.571777 485.959259,609.876770 489.933594,610.396545 
	C494.504150,610.994324 496.723114,608.599609 497.222839,602.093506 
M637.540527,525.369751 
	C637.348938,526.832214 636.838379,528.337708 637.028809,529.748657 
	C637.497314,533.220886 639.826904,534.850159 643.218628,535.090149 
	C646.808044,535.344116 650.031250,534.029419 650.259949,530.391357 
	C650.419617,527.851196 649.172180,524.165710 647.260681,522.797302 
	C644.316833,520.690002 640.546021,521.390259 637.540527,525.369751 
M514.547852,408.095978 
	C519.616638,407.480377 522.054321,405.122681 521.512451,401.118011 
	C521.014099,397.435455 519.142944,395.038055 515.069519,394.939117 
	C511.196869,394.845093 508.615112,396.596649 508.051270,400.398651 
	C507.427368,404.605713 509.220642,407.454071 514.547852,408.095978 
M455.559113,395.023285 
	C451.852753,395.252594 449.624939,397.279144 449.345001,400.896027 
	C449.055145,404.641052 450.717346,407.465088 454.700867,408.022766 
	C458.626038,408.572357 461.749329,407.196533 462.426819,402.900452 
	C463.147614,398.329865 460.972717,395.643585 455.559113,395.023285 
M445.984161,609.609741 
	C452.732452,611.161926 457.169189,608.317932 455.726654,602.967529 
	C455.148651,600.823547 452.733398,597.945374 450.855042,597.700867 
	C448.638947,597.412354 445.401337,599.032593 443.862854,600.874573 
	C441.581146,603.606323 442.688690,606.800293 445.984161,609.609741 
M489.943695,396.268341 
	C488.883972,395.841461 487.632446,394.826782 486.800568,395.098175 
	C484.334320,395.902863 481.146484,396.637543 479.934265,398.501160 
	C478.866302,400.142944 479.181244,404.140015 480.515442,405.512299 
	C482.107483,407.149689 485.582123,407.987091 487.979187,407.589813 
	C492.509216,406.838989 493.384552,402.216827 489.943695,396.268341 
M434.344513,420.435242 
	C432.436615,416.742462 428.988647,415.925293 425.991791,417.799377 
	C424.080811,418.994385 422.105042,422.676025 422.641174,424.521362 
	C423.274231,426.700195 426.366486,429.080688 428.784027,429.620361 
	C432.901733,430.539581 435.217468,426.806458 434.344513,420.435242 
M281.137817,533.034241 
	C286.713745,533.073853 288.675751,531.285400 288.447235,526.371277 
	C288.264404,522.438538 285.399750,519.885010 281.430542,521.022827 
	C279.440094,521.593384 277.109863,523.661438 276.445709,525.576599 
	C275.318573,528.826904 276.813721,531.686768 281.137817,533.034241 
M352.424744,600.100586 
	C349.885468,596.891418 346.358368,596.535400 343.706848,598.922668 
	C342.039886,600.423462 340.722626,604.505371 341.617279,606.102356 
	C342.729279,608.087463 346.449951,609.956055 348.752594,609.653992 
	C353.804932,608.991150 353.652710,604.726440 352.424744,600.100586 
M337.977234,453.851898 
	C337.750000,457.036041 338.181549,460.265320 341.817261,460.844543 
	C343.961945,461.186218 347.313873,460.607239 348.405670,459.153046 
	C349.665894,457.474548 349.908905,454.008484 349.048523,451.971069 
	C347.154999,447.487030 341.613770,448.200256 337.977234,453.851898 
M403.493408,406.396118 
	C407.004181,407.615997 410.633820,407.550690 411.682983,403.570343 
	C412.254089,401.403687 411.139130,397.513885 409.458221,396.396515 
	C407.818848,395.306732 403.647278,395.850555 402.091339,397.296051 
	C399.436707,399.762207 399.787048,403.295166 403.493408,406.396118 
M374.521515,427.731079 
	C377.871704,427.526672 380.561737,425.996918 380.534393,422.527710 
	C380.519073,420.583893 379.111694,417.510895 377.622528,416.995575 
	C375.570404,416.285431 372.294098,416.761597 370.528046,418.065186 
	C366.839172,420.788116 368.526001,425.330688 374.521515,427.731079 
M260.567230,574.732666 
	C256.504059,574.927979 254.857513,577.798828 255.435669,581.041504 
	C255.756882,582.843018 258.495514,585.388306 260.222046,585.450623 
	C262.139923,585.519836 265.237976,583.537354 265.881683,581.749390 
	C267.144592,578.241577 265.433777,575.352783 260.567230,574.732666 
M325.978363,421.686127 
	C326.253296,418.525574 326.954437,415.038574 322.403931,414.383087 
	C319.469910,413.960449 316.276245,414.433655 315.654755,417.811859 
	C315.308502,419.693970 316.180420,422.716888 317.596222,423.809509 
	C320.278656,425.879486 323.516937,425.723969 325.978363,421.686127 
M382.580444,585.681946 
	C378.479584,585.706299 377.049042,588.136963 377.312225,591.808472 
	C377.519104,594.693909 379.089111,596.178223 382.182281,596.178223 
	C385.130127,596.178284 387.524170,595.647278 387.953278,592.246826 
	C388.396881,588.731384 387.617462,585.937866 382.580444,585.681946 
M365.526031,378.753326 
	C366.700745,375.179352 366.525330,371.813080 362.171387,371.138367 
	C360.344238,370.855255 357.253876,372.132904 356.460266,373.620117 
	C355.662323,375.115479 356.443817,379.157776 357.529785,379.592041 
	C359.652130,380.440857 362.468628,379.553894 365.526031,378.753326 
M287.403992,462.905090 
	C291.521179,462.401855 292.979309,459.545471 291.684998,456.246246 
	C291.067444,454.672180 287.950714,453.322388 285.957062,453.309967 
	C284.625763,453.301697 282.545929,455.626801 282.091644,457.265442 
	C281.154877,460.644501 283.347595,462.413300 287.403992,462.905090 
M257.625824,408.828430 
	C260.691376,408.982910 262.680878,407.370636 262.245575,404.487762 
	C261.997101,402.842377 260.162689,400.682800 258.609161,400.225067 
	C257.352051,399.854706 254.603317,401.300385 254.009567,402.615021 
	C252.848419,405.185852 253.464310,407.869781 257.625824,408.828430 
M187.865707,449.800934 
	C186.908646,451.626282 185.578140,453.380524 185.209244,455.317871 
	C185.089828,455.944977 187.609741,457.885651 188.711960,457.730530 
	C190.112076,457.533417 192.544098,455.231049 192.365967,454.850830 
	C191.478485,452.956635 189.880356,451.395416 187.865707,449.800934 
M232.002029,478.756409 
	C232.218353,480.766571 232.041702,482.967743 232.873459,484.678711 
	C233.148392,485.244263 236.553650,485.143585 237.557465,484.253387 
	C238.520126,483.399811 238.903427,480.024353 238.354462,479.686707 
	C236.739182,478.693146 234.534760,478.657410 232.002029,478.756409 
M216.652420,533.527649 
	C215.488235,534.981934 214.324051,536.436218 213.159882,537.890503 
	C214.564713,538.953735 215.860718,540.570251 217.414581,540.875977 
	C218.370605,541.064026 220.394241,539.457642 220.755936,538.290466 
	C221.551483,535.723328 220.301865,533.870300 216.652420,533.527649 
z"/>
<path fill="#F2831C" opacity="1.000000" stroke="none" 
	d="
M745.944092,540.826294 
	C745.415771,541.431641 744.887451,542.036987 743.781250,542.860413 
	C742.504700,543.805359 741.806091,544.532227 741.107422,545.259094 
	C733.003174,552.873962 724.958923,560.554016 716.781555,568.089539 
	C702.101013,581.617737 687.364685,595.085999 672.569519,608.488586 
	C671.328186,609.613037 669.469910,610.704712 667.892578,610.712891 
	C643.921509,610.836731 619.949524,610.778625 595.977722,610.741333 
	C595.703308,610.740906 595.429260,610.453796 594.220703,609.778320 
	C619.660400,585.105469 644.877075,560.648987 670.617920,535.885742 
	C671.414856,535.313049 671.687622,535.046997 671.960449,534.781006 
	C671.960449,534.781006 671.947205,534.953796 672.077332,534.786255 
	C672.455261,534.361328 672.703003,534.103943 672.950806,533.846558 
	C672.950806,533.846558 672.938354,533.913025 673.291870,533.930664 
	C675.581909,533.870911 678.629578,534.530396 679.256531,533.584839 
	C681.587158,530.069885 684.517822,530.519653 687.925720,530.719543 
	C693.357056,531.038147 698.822205,530.889709 704.270325,530.791077 
	C715.194458,530.593262 726.117920,530.075562 737.039490,530.128723 
	C742.811951,530.156799 746.582397,535.143555 745.944092,540.826294 
z"/>
<path fill="#F48C1C" opacity="1.000000" stroke="none" 
	d="
M726.132385,446.958984 
	C731.776733,451.764099 737.567810,456.408630 743.036743,461.405731 
	C756.908508,474.080750 770.559509,486.997925 784.482239,499.615906 
	C787.426025,502.283813 787.328491,503.736969 784.376587,506.200745 
	C778.762878,510.886139 773.463623,515.948242 767.420410,520.992432 
	C765.979858,521.348999 765.152649,521.567078 764.325439,521.785156 
	C764.617981,522.215637 764.910583,522.646118 765.203125,523.076599 
	C762.613159,525.596313 760.023254,528.116089 756.713257,530.797852 
	C754.324097,530.978943 752.655090,530.997986 750.795044,530.732117 
	C748.412292,527.308655 746.220581,524.170166 743.651733,521.036987 
	C741.188843,522.704956 739.103088,524.367798 736.579102,526.030151 
	C732.337524,525.152222 728.433533,524.572632 724.754150,523.328552 
	C719.028748,521.392639 713.104431,519.148804 707.531860,522.389526 
	C698.469421,527.659790 693.674500,527.657227 685.909790,520.851807 
	C691.943970,514.765259 697.978088,508.678711 704.512756,502.087341 
	C688.770996,486.767242 673.016785,471.435028 656.906250,455.574432 
	C656.299377,454.691681 656.048889,454.337341 655.798401,453.983002 
	C655.798401,453.983002 655.896790,454.264130 655.925964,453.954590 
	C658.219543,452.490570 660.411438,450.541565 662.761597,450.327118 
	C670.532715,449.618073 678.548462,448.314545 686.126282,449.478577 
	C699.806763,451.580048 712.808899,447.678680 726.132385,446.958984 
z"/>
<path fill="#F5971B" opacity="1.000000" stroke="none" 
	d="
M726.029175,446.646423 
	C712.808899,447.678680 699.806763,451.580048 686.126282,449.478577 
	C678.548462,448.314545 670.532715,449.618073 662.761597,450.327118 
	C660.411438,450.541565 658.219543,452.490570 655.785461,454.003906 
	C635.724121,435.228821 615.831482,416.095825 595.948608,396.952728 
	C595.609741,396.626495 595.388184,396.178375 594.658386,395.144836 
	C596.568176,394.980957 598.074158,394.741791 599.580566,394.738983 
	C622.209534,394.696625 644.839050,394.625244 667.466919,394.777893 
	C669.331116,394.790497 671.533203,395.985046 672.987976,397.289001 
	C684.251221,407.384583 695.412476,417.595428 706.515564,427.867645 
	C713.070129,433.931763 719.461243,440.172546 726.029175,446.646423 
z"/>
<path fill="#EA7C1B" opacity="1.000000" stroke="none" 
	d="
M744.028870,521.031738 
	C746.220581,524.170166 748.412292,527.308655 750.845093,531.055786 
	C751.988098,532.437256 752.889893,533.210022 753.791748,533.982849 
	C751.379272,536.180237 748.966736,538.377563 746.249146,540.700623 
	C746.582397,535.143555 742.811951,530.156799 737.039490,530.128723 
	C726.117920,530.075562 715.194458,530.593262 704.270325,530.791077 
	C698.822205,530.889709 693.357056,531.038147 687.925720,530.719543 
	C684.517822,530.519653 681.587158,530.069885 679.256531,533.584839 
	C678.629578,534.530396 675.581909,533.870911 673.261108,533.916565 
	C677.018311,529.633118 681.159668,525.381348 685.605347,520.990723 
	C693.674500,527.657227 698.469421,527.659790 707.531860,522.389526 
	C713.104431,519.148804 719.028748,521.392639 724.754150,523.328552 
	C728.433533,524.572632 732.337524,525.152222 736.909363,526.161499 
	C742.465454,527.763062 743.847473,525.121948 744.028870,521.031738 
M716.832214,523.589172 
	C716.546631,523.668091 716.260986,523.747009 715.975403,523.825928 
	C716.146362,524.055115 716.317261,524.284363 716.488220,524.513550 
	C716.671997,524.292725 716.855774,524.071899 716.832214,523.589172 
z"/>
<path fill="#F48C1C" opacity="1.000000" stroke="none" 
	d="
M535.510132,470.071289 
	C542.817505,469.965698 546.217896,472.914215 545.361572,478.344269 
	C544.760132,482.158142 542.777344,484.814911 538.601379,485.135468 
	C534.468811,485.452667 531.218445,483.935333 530.208069,479.757507 
	C529.156128,475.407745 530.481140,471.827026 535.510132,470.071289 
z"/>
<path fill="#F48C1C" opacity="1.000000" stroke="none" 
	d="
M518.139587,496.755310 
	C522.432983,502.797882 521.252075,508.653259 515.687073,510.108551 
	C512.280151,510.999481 509.004547,510.444672 506.934204,507.259216 
	C504.821289,504.008240 504.976471,500.500000 507.546082,497.640076 
	C510.469788,494.386017 514.100220,494.243683 518.139587,496.755310 
z"/>
<path fill="#EC871D" opacity="1.000000" stroke="none" 
	d="
M545.391846,533.405273 
	C543.264221,534.292725 541.418823,535.422729 539.553955,535.455750 
	C535.286377,535.531372 532.072388,531.707886 532.405701,527.525024 
	C532.782959,522.790344 536.749329,519.845337 541.557251,520.729980 
	C545.947327,521.537781 548.297485,525.091980 547.241089,529.555115 
	C546.944641,530.807434 546.202759,531.954346 545.391846,533.405273 
z"/>
<path fill="#F48C1C" opacity="1.000000" stroke="none" 
	d="
M516.466675,561.488525 
	C511.832397,561.755066 508.152924,560.213196 507.580261,555.825073 
	C507.251923,553.309143 508.368439,549.561829 510.209351,548.098694 
	C512.050781,546.635132 516.065063,546.339539 518.270081,547.368408 
	C520.219788,548.278076 521.679260,551.592041 522.120483,554.064758 
	C522.784485,557.786377 520.464722,560.282288 516.466675,561.488525 
z"/>
<path fill="#F5971B" opacity="1.000000" stroke="none" 
	d="
M520.512817,453.266418 
	C517.734009,458.140167 513.324341,459.669983 509.219727,457.312683 
	C505.395935,455.116760 504.940552,451.647430 506.343140,447.859558 
	C507.741821,444.082062 512.254089,442.349945 516.256470,443.938446 
	C520.390320,445.579163 520.930908,449.055115 520.512817,453.266418 
z"/>
<path fill="#F5971B" opacity="1.000000" stroke="none" 
	d="
M528.989502,427.020233 
	C530.341919,420.642517 533.779236,418.443329 539.273499,420.031067 
	C543.331909,421.203827 545.411438,425.983978 543.653198,430.098541 
	C541.895752,434.211151 536.640625,436.301636 532.912659,433.712128 
	C531.051270,432.419128 530.272827,429.567108 528.989502,427.020233 
z"/>
<path fill="#F48C1C" opacity="1.000000" stroke="none" 
	d="
M459.965271,512.959351 
	C455.142853,509.902893 453.901611,506.481354 456.068115,502.522827 
	C457.998627,498.995544 461.045349,497.850708 464.870026,499.031830 
	C469.089417,500.334778 470.421906,503.525146 469.775665,507.540466 
	C469.088104,511.812805 465.936371,513.532898 459.965271,512.959351 
z"/>
<path fill="#EC871D" opacity="1.000000" stroke="none" 
	d="
M517.787476,585.821045 
	C516.795898,586.086426 516.143921,586.220947 515.485535,586.272522 
	C511.162750,586.611633 507.805542,585.217041 506.996338,580.591064 
	C506.343842,576.860962 507.355408,573.347595 511.347260,572.125122 
	C514.779419,571.074280 518.390564,571.194946 520.608887,574.873840 
	C522.983093,578.811157 522.087341,582.512573 517.787476,585.821045 
z"/>
<path fill="#F48C1C" opacity="1.000000" stroke="none" 
	d="
M474.911682,577.983398 
	C471.644897,577.232117 467.799133,577.117737 466.061249,575.145752 
	C464.668518,573.565430 464.894379,569.167358 466.151245,567.066223 
	C467.232635,565.258423 470.951721,563.886414 473.198578,564.243958 
	C475.376129,564.590515 478.011444,567.026306 478.930603,569.188599 
	C480.430420,572.716980 478.857635,575.948425 474.911682,577.983398 
z"/>
<path fill="#EC871D" opacity="1.000000" stroke="none" 
	d="
M489.892487,537.300781 
	C484.900116,534.182312 483.719513,531.030518 485.801849,526.908508 
	C487.790070,522.972900 491.263184,522.073425 495.030884,523.330200 
	C498.813324,524.591919 500.148407,527.912781 499.615814,531.697815 
	C499.026428,535.886169 495.733948,537.773315 489.892487,537.300781 
z"/>
<path fill="#EC871D" opacity="1.000000" stroke="none" 
	d="
M444.864746,547.077148 
	C440.966248,548.721375 437.554871,547.990234 435.872559,544.795105 
	C434.732544,542.629944 434.278717,538.818604 435.465820,537.053650 
	C436.807465,535.058899 440.372955,533.564209 442.888885,533.678040 
	C444.814148,533.764954 447.338440,536.354370 448.299042,538.430847 
	C449.838257,541.758118 448.490631,544.896057 444.864746,547.077148 
z"/>
<path fill="#F48C1C" opacity="1.000000" stroke="none" 
	d="
M476.774780,421.920715 
	C481.493286,418.817688 485.912262,418.862122 488.170441,421.989288 
	C490.456573,425.155304 490.583435,428.604614 488.067230,431.678467 
	C485.616821,434.671844 482.192780,434.849030 479.013000,433.237335 
	C475.522736,431.468231 474.083740,428.411530 475.472992,424.462280 
	C475.747040,423.683289 476.162689,422.954102 476.774780,421.920715 
z"/>
<path fill="#F48C1C" opacity="1.000000" stroke="none" 
	d="
M483.515717,468.081848 
	C486.622742,469.146698 490.120056,469.604401 491.861115,471.596802 
	C494.356628,474.452515 493.575897,478.245758 490.611481,480.901428 
	C488.048370,483.197510 482.557129,482.538910 480.121460,479.938171 
	C477.609070,477.255524 477.598633,472.742126 480.233063,470.042786 
	C481.016418,469.240112 482.148987,468.778259 483.515717,468.081848 
z"/>
<path fill="#EC871D" opacity="1.000000" stroke="none" 
	d="
M601.223389,475.861847 
	C601.605042,482.011810 599.723328,484.960205 595.444397,485.244843 
	C591.353943,485.516968 588.257141,483.874634 587.159973,479.778839 
	C586.173523,476.096222 587.693604,473.085052 591.185364,471.724854 
	C595.389160,470.087280 598.956787,471.175201 601.223389,475.861847 
z"/>
<path fill="#EC871D" opacity="1.000000" stroke="none" 
	d="
M576.208496,475.104828 
	C577.700684,479.377563 577.098450,483.236084 573.164368,484.605927 
	C570.697815,485.464783 566.646912,484.880035 564.729675,483.259583 
	C563.098999,481.881317 562.500427,477.790771 563.213318,475.435364 
	C564.787292,470.234924 571.534424,470.071594 576.208496,475.104828 
z"/>
<path fill="#F48C1C" opacity="1.000000" stroke="none" 
	d="
M429.788757,474.890015 
	C432.807037,470.068939 435.958435,468.858398 439.759583,470.748505 
	C443.199158,472.458893 444.560547,476.271332 443.076630,480.037384 
	C441.705231,483.517853 437.815979,485.334656 434.022217,483.959961 
	C429.953613,482.485718 428.610291,479.409882 429.788757,474.890015 
z"/>
<path fill="#EC871D" opacity="1.000000" stroke="none" 
	d="
M563.775696,421.103333 
	C567.875854,420.567719 571.687195,421.098511 572.572754,425.174683 
	C573.119202,427.689789 572.427429,431.787262 570.700562,433.133575 
	C568.762878,434.644257 564.693481,434.730652 562.195923,433.766876 
	C560.440491,433.089600 558.643005,429.476990 558.904114,427.436157 
	C559.190613,425.197479 561.819031,423.258484 563.775696,421.103333 
z"/>
<path fill="#EA7C1B" opacity="1.000000" stroke="none" 
	d="
M617.529419,471.471436 
	C621.290344,471.147827 624.728394,471.811859 625.515137,475.408844 
	C626.044250,477.828156 625.575012,481.448761 624.023682,483.061371 
	C622.497314,484.648010 618.639038,485.430237 616.548767,484.627045 
	C614.496399,483.838409 612.573669,480.791382 612.043945,478.412567 
	C611.255127,474.870758 613.739868,472.590454 617.529419,471.471436 
z"/>
<path fill="#EC871D" opacity="1.000000" stroke="none" 
	d="
M561.957642,497.987213 
	C565.378296,498.007172 568.722290,497.575470 571.456055,498.669128 
	C572.775391,499.196869 573.982178,502.972382 573.387939,504.601898 
	C572.558289,506.876740 570.189514,509.784027 568.123169,510.101410 
	C565.726929,510.469452 562.189758,508.997528 560.510376,507.111237 
	C558.093079,504.396149 559.124939,500.903351 561.957642,497.987213 
z"/>
<path fill="#F2831C" opacity="1.000000" stroke="none" 
	d="
M541.851196,560.329041 
	C536.954407,560.406128 534.412476,557.872559 534.448059,553.678040 
	C534.479736,549.936707 536.512695,547.031616 540.870911,546.800110 
	C544.917480,546.585266 547.853210,548.199524 548.397400,552.351501 
	C548.981812,556.810852 546.772400,559.613464 541.851196,560.329041 
z"/>
<path fill="#EC871D" opacity="1.000000" stroke="none" 
	d="
M595.601196,509.653778 
	C591.650330,510.572083 588.111877,510.554932 586.319519,506.638245 
	C584.710999,503.123138 585.134094,499.623596 588.730652,497.504028 
	C592.160034,495.482941 595.572083,496.259155 598.122620,499.229553 
	C600.798889,502.346344 599.841187,506.171844 595.601196,509.653778 
z"/>
<path fill="#EC871D" opacity="1.000000" stroke="none" 
	d="
M397.703918,546.863220 
	C401.529694,546.769653 405.285065,547.061584 405.768066,551.206299 
	C406.064941,553.753967 405.285095,557.529846 403.535309,558.905457 
	C401.758423,560.302246 397.711456,560.420593 395.512421,559.348145 
	C390.375610,556.842896 391.477020,550.550598 397.703918,546.863220 
z"/>
<path fill="#F48C1C" opacity="1.000000" stroke="none" 
	d="
M414.885742,509.305969 
	C414.989288,514.216553 413.059753,516.997437 408.299377,517.225891 
	C404.515656,517.407471 401.706177,515.866272 401.026794,511.984070 
	C400.413177,508.477448 401.220612,505.297058 405.068573,503.876373 
	C409.013123,502.419983 412.493591,504.239136 414.885742,509.305969 
z"/>
<path fill="#EC871D" opacity="1.000000" stroke="none" 
	d="
M597.554565,457.680176 
	C592.515808,460.867828 588.250183,460.332611 586.087708,456.537933 
	C583.999512,452.873657 585.054932,448.033661 588.937866,446.921356 
	C591.421448,446.209961 595.109680,446.575104 597.111877,448.032196 
	C600.258911,450.322418 600.044861,454.080200 597.554565,457.680176 
z"/>
<path fill="#EA7C1B" opacity="1.000000" stroke="none" 
	d="
M563.970581,585.408447 
	C559.765259,582.817749 558.583618,579.429199 560.835266,575.472534 
	C562.840088,571.949524 566.144409,571.209839 569.876404,572.774109 
	C573.567383,574.321167 574.790161,577.491577 573.821899,580.928284 
	C572.505615,585.600464 568.788208,586.688049 563.970581,585.408447 
z"/>
<path fill="#EC871D" opacity="1.000000" stroke="none" 
	d="
M559.166992,450.637329 
	C560.925354,448.945801 562.348022,447.105377 564.197327,446.425720 
	C568.091309,444.994629 572.160400,447.471466 573.050171,451.296417 
	C573.972717,455.262177 571.606628,459.030884 567.633423,459.924164 
	C563.502869,460.852783 559.620361,458.213196 558.991516,453.970856 
	C558.848816,453.008118 559.005615,452.000977 559.166992,450.637329 
z"/>
<path fill="#EC871D" opacity="1.000000" stroke="none" 
	d="
M356.945831,529.192017 
	C360.178284,524.648499 363.556061,523.587036 367.132172,525.836182 
	C370.705719,528.083679 371.081238,531.392517 369.585785,534.929810 
	C368.012024,538.652344 364.658752,539.371460 361.282288,538.309265 
	C357.141785,537.006653 355.053589,534.097473 356.945831,529.192017 
z"/>
<path fill="#EA7C1B" opacity="1.000000" stroke="none" 
	d="
M560.447449,531.240967 
	C559.698853,527.257141 560.402527,523.703674 564.091614,522.719055 
	C566.589905,522.052246 570.346741,522.506165 572.185059,524.061401 
	C573.748962,525.384460 574.355896,529.302063 573.663208,531.537903 
	C571.997375,536.914246 564.898193,536.794189 560.447449,531.240967 
z"/>
<path fill="#EA7C1B" opacity="1.000000" stroke="none" 
	d="
M615.159058,534.982056 
	C610.754700,531.185608 610.129700,528.098450 612.762878,524.644592 
	C614.953552,521.771118 619.485901,520.932068 622.531677,523.061768 
	C625.708557,525.283203 626.228394,528.548279 624.676392,531.811646 
	C622.830078,535.693604 619.453552,536.492676 615.159058,534.982056 
z"/>
<path fill="#F2831C" opacity="1.000000" stroke="none" 
	d="
M620.187622,510.058044 
	C616.404663,510.595825 613.154663,509.943787 612.040283,506.431641 
	C611.381348,504.354950 611.402771,500.966003 612.664734,499.648987 
	C614.303528,497.938751 617.646973,496.732056 619.943542,497.127472 
	C621.901062,497.464508 624.260803,500.102325 624.936890,502.206177 
	C626.078674,505.759613 624.095093,508.569916 620.187622,510.058044 
z"/>
<path fill="#EA7C1B" opacity="1.000000" stroke="none" 
	d="
M597.788696,558.755127 
	C594.583496,559.189819 591.427856,560.046814 588.783386,559.236145 
	C587.297485,558.780701 585.521790,555.304871 585.905212,553.663940 
	C586.455139,551.310730 588.491211,548.283203 590.572144,547.593933 
	C592.695007,546.890564 596.293091,547.935547 598.071594,549.526855 
	C600.792603,551.961487 600.595276,555.485596 597.788696,558.755127 
z"/>
<path fill="#EA7C1B" opacity="1.000000" stroke="none" 
	d="
M561.021301,600.962708 
	C562.482544,599.462158 563.678467,597.870972 565.250549,597.279358 
	C569.126953,595.820557 573.545349,598.506836 574.363464,602.451294 
	C575.176575,606.371704 572.522522,610.012573 568.436462,610.582031 
	C564.346252,611.152100 560.937683,608.474121 560.546082,604.262451 
	C560.456970,603.304016 560.788940,602.306458 561.021301,600.962708 
z"/>
<path fill="#F2831C" opacity="1.000000" stroke="none" 
	d="
M588.117676,533.866882 
	C584.097839,527.881775 585.591003,522.346985 591.263428,522.107666 
	C593.685547,522.005554 597.056641,523.198364 598.397827,524.995728 
	C599.593567,526.598206 599.469666,530.430786 598.297729,532.198181 
	C597.165466,533.905945 594.003662,534.429321 591.624634,535.067200 
	C590.707153,535.313232 589.490051,534.441467 588.117676,533.866882 
z"/>
<path fill="#EA7C1B" opacity="1.000000" stroke="none" 
	d="
M560.092285,555.574585 
	C561.253967,552.730408 561.914856,549.113953 563.884644,548.137390 
	C565.988525,547.094360 569.805908,547.792175 571.961609,549.164978 
	C573.428345,550.098999 574.377869,553.938232 573.652588,555.688477 
	C572.756592,557.850586 570.118103,560.073730 567.812012,560.685547 
	C564.310730,561.614441 561.429016,559.645264 560.092285,555.574585 
z"/>
<path fill="#EC871D" opacity="1.000000" stroke="none" 
	d="
M454.368103,454.672302 
	C450.291260,451.682190 449.750000,448.186371 452.452637,444.561615 
	C454.908875,441.267303 458.416107,441.079865 461.789948,443.061829 
	C465.158997,445.040924 465.852142,448.218353 464.242706,451.655762 
	C462.248383,455.915222 458.823578,456.590240 454.368103,454.672302 
z"/>
<path fill="#F2831C" opacity="1.000000" stroke="none" 
	d="
M674.831421,507.828796 
	C671.396790,510.668365 667.713196,511.325439 664.828369,508.310913 
	C663.328979,506.744141 662.557068,503.506897 662.964966,501.303436 
	C663.688538,497.394440 668.240051,495.664581 672.128601,497.090393 
	C676.034668,498.522583 677.051514,502.184601 674.831421,507.828796 
z"/>
<path fill="#F2831C" opacity="1.000000" stroke="none" 
	d="
M598.955627,425.830078 
	C599.753662,430.441681 598.318176,433.324249 593.886108,434.330048 
	C590.151245,435.177704 587.259583,434.030823 585.732971,430.471741 
	C584.186035,426.865143 585.542542,423.952240 588.659790,421.905731 
	C592.244202,419.552460 595.954529,420.915894 598.955627,425.830078 
z"/>
<path fill="#EC871D" opacity="1.000000" stroke="none" 
	d="
M404.994019,441.996704 
	C410.260254,443.176086 412.595062,446.055969 411.861359,450.215149 
	C411.228485,453.802917 408.883453,455.818207 405.318359,455.794800 
	C401.450348,455.769409 398.452087,454.000671 398.224243,449.739685 
	C397.993347,445.421600 399.781891,442.362091 404.994019,441.996704 
z"/>
<path fill="#EA7C1B" opacity="1.000000" stroke="none" 
	d="
M640.208435,484.029846 
	C636.571228,481.041016 635.889587,477.576019 638.348694,474.132050 
	C640.579468,471.008026 644.480225,470.488586 647.257629,472.471619 
	C649.209656,473.865265 650.703125,477.339905 650.621155,479.826630 
	C650.476624,484.210693 646.227966,485.756317 640.208435,484.029846 
z"/>
<path fill="#EC871D" opacity="1.000000" stroke="none" 
	d="
M426.120972,586.492188 
	C421.840881,585.837585 419.180511,583.713623 419.476868,579.570435 
	C419.710876,576.298645 421.390625,573.556335 425.100006,572.961731 
	C429.080719,572.323669 432.555115,574.762207 433.115509,578.539795 
	C433.675049,582.311401 431.699005,586.519287 426.120972,586.492188 
z"/>
<path fill="#EC871D" opacity="1.000000" stroke="none" 
	d="
M618.008057,459.853790 
	C615.455750,458.080322 612.472961,456.684204 611.410217,454.396210 
	C610.697632,452.861969 612.081055,449.091278 613.657532,448.074402 
	C615.654236,446.786407 619.348877,446.251862 621.290283,447.294098 
	C623.169800,448.303101 624.579834,451.676575 624.717590,454.095734 
	C624.931824,457.856415 621.794495,459.317230 618.008057,459.853790 
z"/>
<path fill="#EC871D" opacity="1.000000" stroke="none" 
	d="
M380.266418,489.269226 
	C376.007477,490.008118 372.485291,488.913544 371.670197,484.990814 
	C371.202332,482.739288 372.313538,479.114288 374.023712,477.752625 
	C375.698608,476.419037 379.414062,476.276733 381.565948,477.188354 
	C386.642731,479.338867 385.993256,485.654541 380.266418,489.269226 
z"/>
<path fill="#EA7C1B" opacity="1.000000" stroke="none" 
	d="
M520.496948,609.502441 
	C516.759155,611.123535 513.563110,610.827881 511.362000,607.670959 
	C509.235535,604.621155 509.058411,600.672913 512.183350,598.812927 
	C514.503723,597.431763 518.594910,597.380127 521.159424,598.471008 
	C524.370300,599.836792 524.512390,603.516235 523.009155,606.712769 
	C522.544861,607.700012 521.554993,608.440063 520.496948,609.502441 
z"/>
<path fill="#EC871D" opacity="1.000000" stroke="none" 
	d="
M328.738495,502.456421 
	C324.112885,502.484955 321.367401,500.658752 321.116608,496.157928 
	C320.913635,492.514893 322.724396,489.997620 326.243134,489.265808 
	C329.871552,488.511230 332.806793,489.866943 334.249634,493.499329 
	C335.785156,497.365021 333.824219,500.681885 328.738495,502.456421 
z"/>
<path fill="#EA7C1B" opacity="1.000000" stroke="none" 
	d="
M534.567505,577.474365 
	C536.990906,572.212708 540.319824,570.693970 544.363708,572.691528 
	C548.065247,574.519836 549.389282,578.905579 547.261230,582.289124 
	C545.192200,585.578735 540.416565,586.759094 537.360779,584.082275 
	C535.781982,582.699402 535.389893,579.961731 534.567505,577.474365 
z"/>
<path fill="#EA7C1B" opacity="1.000000" stroke="none" 
	d="
M593.630615,585.331665 
	C589.640198,585.714600 586.549194,584.344421 586.199829,580.738525 
	C585.969666,578.363220 587.099365,574.623535 588.847229,573.609131 
	C590.913818,572.409912 595.133301,572.459167 596.880310,573.871399 
	C598.584900,575.249329 598.986755,579.097900 598.700012,581.724243 
	C598.552795,583.072937 595.656189,584.121582 593.630615,585.331665 
z"/>
<path fill="#EA7C1B" opacity="1.000000" stroke="none" 
	d="
M546.524414,608.606812 
	C540.778931,611.703857 535.653625,610.516541 535.150757,605.772583 
	C534.890625,603.317749 536.226257,599.498474 538.101074,598.346619 
	C539.999939,597.179932 544.089661,597.624451 546.080933,599.005371 
	C549.350952,601.273254 548.904724,605.028625 546.524414,608.606812 
z"/>
<path fill="#F2831C" opacity="1.000000" stroke="none" 
	d="
M624.726440,556.320984 
	C621.607544,560.664246 617.675476,562.149597 614.680298,559.465637 
	C612.898499,557.869019 611.689148,554.431763 611.958862,552.015930 
	C612.418518,547.898926 616.005127,546.538818 619.808350,547.273010 
	C624.516663,548.181763 625.536987,551.663208 624.726440,556.320984 
z"/>
<path fill="#EC871D" opacity="1.000000" stroke="none" 
	d="
M639.264282,508.704407 
	C635.790283,505.102783 635.657898,501.040466 639.164795,498.615601 
	C641.292358,497.144562 645.701538,497.165894 648.135803,498.396210 
	C651.289429,499.990051 651.753052,503.910278 649.580994,507.066040 
	C646.996460,510.820862 643.365784,510.894165 639.264282,508.704407 
z"/>
<path fill="#F5971B" opacity="1.000000" stroke="none" 
	d="
M325.295685,567.991333 
	C318.783417,568.051697 316.000702,565.866760 316.293823,561.283325 
	C316.572998,556.917969 320.105591,553.898804 324.508118,555.179260 
	C326.595703,555.786438 328.907227,558.070007 329.699219,560.137390 
	C331.036560,563.628235 329.359039,566.534851 325.295685,567.991333 
z"/>
<path fill="#EC871D" opacity="1.000000" stroke="none" 
	d="
M575.631165,401.872925 
	C573.871521,407.330383 570.777039,409.347961 566.418640,407.939606 
	C562.468872,406.663269 560.601440,403.417664 562.148315,399.866180 
	C563.087952,397.708801 566.160034,395.641876 568.596497,395.158203 
	C572.981628,394.287628 575.015808,397.471924 575.631165,401.872925 
z"/>
<path fill="#F48C1C" opacity="1.000000" stroke="none" 
	d="
M545.883423,406.740570 
	C542.540161,406.845642 539.236389,407.306366 536.515503,406.256561 
	C535.283020,405.781036 534.233887,401.943787 534.852295,400.283936 
	C535.633972,398.185944 538.003540,395.716583 540.054260,395.325043 
	C542.108459,394.932831 545.957458,396.359344 546.605103,397.963531 
	C547.569824,400.353088 546.414185,403.598633 545.883423,406.740570 
z"/>
<path fill="#F2831C" opacity="1.000000" stroke="none" 
	d="
M497.292236,602.452820 
	C496.723114,608.599609 494.504150,610.994324 489.933594,610.396545 
	C485.959259,609.876770 483.718811,607.571777 483.874359,603.341980 
	C484.003662,599.826111 486.079315,597.763611 489.258087,597.226624 
	C493.080658,596.580750 496.124878,597.926147 497.292236,602.452820 
z"/>
<path fill="#EA7C1B" opacity="1.000000" stroke="none" 
	d="
M637.754639,525.022156 
	C640.546021,521.390259 644.316833,520.690002 647.260681,522.797302 
	C649.172180,524.165710 650.419617,527.851196 650.259949,530.391357 
	C650.031250,534.029419 646.808044,535.344116 643.218628,535.090149 
	C639.826904,534.850159 637.497314,533.220886 637.028809,529.748657 
	C636.838379,528.337708 637.348938,526.832214 637.754639,525.022156 
z"/>
<path fill="#F48C1C" opacity="1.000000" stroke="none" 
	d="
M514.138184,408.089417 
	C509.220642,407.454071 507.427368,404.605713 508.051270,400.398651 
	C508.615112,396.596649 511.196869,394.845093 515.069519,394.939117 
	C519.142944,395.038055 521.014099,397.435455 521.512451,401.118011 
	C522.054321,405.122681 519.616638,407.480377 514.138184,408.089417 
z"/>
<path fill="#EC871D" opacity="1.000000" stroke="none" 
	d="
M455.952026,395.024780 
	C460.972717,395.643585 463.147614,398.329865 462.426819,402.900452 
	C461.749329,407.196533 458.626038,408.572357 454.700867,408.022766 
	C450.717346,407.465088 449.055145,404.641052 449.345001,400.896027 
	C449.624939,397.279144 451.852753,395.252594 455.952026,395.024780 
z"/>
<path fill="#F2831C" opacity="1.000000" stroke="none" 
	d="
M445.691986,609.396851 
	C442.688690,606.800293 441.581146,603.606323 443.862854,600.874573 
	C445.401337,599.032593 448.638947,597.412354 450.855042,597.700867 
	C452.733398,597.945374 455.148651,600.823547 455.726654,602.967529 
	C457.169189,608.317932 452.732452,611.161926 445.691986,609.396851 
z"/>
<path fill="#F48C1C" opacity="1.000000" stroke="none" 
	d="
M490.244446,396.503845 
	C493.384552,402.216827 492.509216,406.838989 487.979187,407.589813 
	C485.582123,407.987091 482.107483,407.149689 480.515442,405.512299 
	C479.181244,404.140015 478.866302,400.142944 479.934265,398.501160 
	C481.146484,396.637543 484.334320,395.902863 486.800568,395.098175 
	C487.632446,394.826782 488.883972,395.841461 490.244446,396.503845 
z"/>
<path fill="#F48C1C" opacity="1.000000" stroke="none" 
	d="
M434.559937,420.776886 
	C435.217468,426.806458 432.901733,430.539581 428.784027,429.620361 
	C426.366486,429.080688 423.274231,426.700195 422.641174,424.521362 
	C422.105042,422.676025 424.080811,418.994385 425.991791,417.799377 
	C428.988647,415.925293 432.436615,416.742462 434.559937,420.776886 
z"/>
<path fill="#F2831C" opacity="1.000000" stroke="none" 
	d="
M280.782349,532.962280 
	C276.813721,531.686768 275.318573,528.826904 276.445709,525.576599 
	C277.109863,523.661438 279.440094,521.593384 281.430542,521.022827 
	C285.399750,519.885010 288.264404,522.438538 288.447235,526.371277 
	C288.675751,531.285400 286.713745,533.073853 280.782349,532.962280 
z"/>
<path fill="#F48C1C" opacity="1.000000" stroke="none" 
	d="
M352.625549,600.402283 
	C353.652710,604.726440 353.804932,608.991150 348.752594,609.653992 
	C346.449951,609.956055 342.729279,608.087463 341.617279,606.102356 
	C340.722626,604.505371 342.039886,600.423462 343.706848,598.922668 
	C346.358368,596.535400 349.885468,596.891418 352.625549,600.402283 
z"/>
<path fill="#F48C1C" opacity="1.000000" stroke="none" 
	d="
M338.056519,453.462097 
	C341.613770,448.200256 347.154999,447.487030 349.048523,451.971069 
	C349.908905,454.008484 349.665894,457.474548 348.405670,459.153046 
	C347.313873,460.607239 343.961945,461.186218 341.817261,460.844543 
	C338.181549,460.265320 337.750000,457.036041 338.056519,453.462097 
z"/>
<path fill="#EC871D" opacity="1.000000" stroke="none" 
	d="
M403.180847,406.170349 
	C399.787048,403.295166 399.436707,399.762207 402.091339,397.296051 
	C403.647278,395.850555 407.818848,395.306732 409.458221,396.396515 
	C411.139130,397.513885 412.254089,401.403687 411.682983,403.570343 
	C410.633820,407.550690 407.004181,407.615997 403.180847,406.170349 
z"/>
<path fill="#EC871D" opacity="1.000000" stroke="none" 
	d="
M374.136597,427.732574 
	C368.526001,425.330688 366.839172,420.788116 370.528046,418.065186 
	C372.294098,416.761597 375.570404,416.285431 377.622528,416.995575 
	C379.111694,417.510895 380.519073,420.583893 380.534393,422.527710 
	C380.561737,425.996918 377.871704,427.526672 374.136597,427.732574 
z"/>
<path fill="#F48C1C" opacity="1.000000" stroke="none" 
	d="
M260.923279,574.714722 
	C265.433777,575.352783 267.144592,578.241577 265.881683,581.749390 
	C265.237976,583.537354 262.139923,585.519836 260.222046,585.450623 
	C258.495514,585.388306 255.756882,582.843018 255.435669,581.041504 
	C254.857513,577.798828 256.504059,574.927979 260.923279,574.714722 
z"/>
<path fill="#EC871D" opacity="1.000000" stroke="none" 
	d="
M325.858582,422.040771 
	C323.516937,425.723969 320.278656,425.879486 317.596222,423.809509 
	C316.180420,422.716888 315.308502,419.693970 315.654755,417.811859 
	C316.276245,414.433655 319.469910,413.960449 322.403931,414.383087 
	C326.954437,415.038574 326.253296,418.525574 325.858582,422.040771 
z"/>
<path fill="#F2831C" opacity="1.000000" stroke="none" 
	d="
M382.957642,585.681519 
	C387.617462,585.937866 388.396881,588.731384 387.953278,592.246826 
	C387.524170,595.647278 385.130127,596.178284 382.182281,596.178223 
	C379.089111,596.178223 377.519104,594.693909 377.312225,591.808472 
	C377.049042,588.136963 378.479584,585.706299 382.957642,585.681519 
z"/>
<path fill="#F48C1C" opacity="1.000000" stroke="none" 
	d="
M365.261902,379.069427 
	C362.468628,379.553894 359.652130,380.440857 357.529785,379.592041 
	C356.443817,379.157776 355.662323,375.115479 356.460266,373.620117 
	C357.253876,372.132904 360.344238,370.855255 362.171387,371.138367 
	C366.525330,371.813080 366.700745,375.179352 365.261902,379.069427 
z"/>
<path fill="#F48C1C" opacity="1.000000" stroke="none" 
	d="
M287.000885,462.917664 
	C283.347595,462.413300 281.154877,460.644501 282.091644,457.265442 
	C282.545929,455.626801 284.625763,453.301697 285.957062,453.309967 
	C287.950714,453.322388 291.067444,454.672180 291.684998,456.246246 
	C292.979309,459.545471 291.521179,462.401855 287.000885,462.917664 
z"/>
<path fill="#F48C1C" opacity="1.000000" stroke="none" 
	d="
M257.251495,408.806671 
	C253.464310,407.869781 252.848419,405.185852 254.009567,402.615021 
	C254.603317,401.300385 257.352051,399.854706 258.609161,400.225067 
	C260.162689,400.682800 261.997101,402.842377 262.245575,404.487762 
	C262.680878,407.370636 260.691376,408.982910 257.251495,408.806671 
z"/>
<path fill="#EC871D" opacity="1.000000" stroke="none" 
	d="
M188.199036,449.758972 
	C189.880356,451.395416 191.478485,452.956635 192.365967,454.850830 
	C192.544098,455.231049 190.112076,457.533417 188.711960,457.730530 
	C187.609741,457.885651 185.089828,455.944977 185.209244,455.317871 
	C185.578140,453.380524 186.908646,451.626282 188.199036,449.758972 
z"/>
<path fill="#EA7C1B" opacity="1.000000" stroke="none" 
	d="
M232.281509,478.501556 
	C234.534760,478.657410 236.739182,478.693146 238.354462,479.686707 
	C238.903427,480.024353 238.520126,483.399811 237.557465,484.253387 
	C236.553650,485.143585 233.148392,485.244263 232.873459,484.678711 
	C232.041702,482.967743 232.218353,480.766571 232.281509,478.501556 
z"/>
<path fill="#EC871D" opacity="1.000000" stroke="none" 
	d="
M217.023712,533.537659 
	C220.301865,533.870300 221.551483,535.723328 220.755936,538.290466 
	C220.394241,539.457642 218.370605,541.064026 217.414581,540.875977 
	C215.860718,540.570251 214.564713,538.953735 213.159882,537.890503 
	C214.324051,536.436218 215.488235,534.981934 217.023712,533.537659 
z"/>
<path fill="#F2831C" opacity="1.000000" stroke="none" 
	d="
M754.075378,533.849304 
	C752.889893,533.210022 751.988098,532.437256 751.036133,531.340759 
	C752.655090,530.997986 754.324097,530.978943 756.409363,530.951538 
	C756.003418,531.867432 755.181213,532.791626 754.075378,533.849304 
z"/>
<path fill="#F2831C" opacity="1.000000" stroke="none" 
	d="
M765.490967,522.978149 
	C764.910583,522.646118 764.617981,522.215637 764.325439,521.785156 
	C765.152649,521.567078 765.979858,521.348999 767.141602,521.149414 
	C766.910339,521.738525 766.344604,522.309082 765.490967,522.978149 
z"/>
<path fill="#EA7C1B" opacity="1.000000" stroke="none" 
	d="
M741.395935,545.154358 
	C741.806091,544.532227 742.504700,543.805359 743.520508,543.014343 
	C743.119934,543.649963 742.402161,544.349792 741.395935,545.154358 
z"/>
<path fill="#EA7C1B" opacity="1.000000" stroke="none" 
	d="
M671.677368,534.878601 
	C671.687622,535.046997 671.414856,535.313049 670.905518,535.738342 
	C670.910767,535.590454 671.152527,535.283325 671.677368,534.878601 
z"/>
<path fill="#EA7C1B" opacity="1.000000" stroke="none" 
	d="
M672.680115,533.935669 
	C672.703003,534.103943 672.455261,534.361328 671.990906,534.779358 
	C671.986023,534.634949 672.197693,534.329895 672.680115,533.935669 
z"/>
<path fill="#F5971B" opacity="1.000000" stroke="none" 
	d="
M655.825012,454.338196 
	C656.048889,454.337341 656.299377,454.691681 656.754089,455.306824 
	C656.589478,455.276184 656.220581,454.984772 655.825012,454.338196 
z"/>
<path fill="#F2831C" opacity="1.000000" stroke="none" 
	d="
M743.651733,521.036987 
	C743.847473,525.121948 742.465454,527.763062 737.347595,526.161987 
	C739.103088,524.367798 741.188843,522.704956 743.651733,521.036987 
z"/>
<path fill="#F2831C" opacity="1.000000" stroke="none" 
	d="
M716.935852,523.720093 
	C716.855774,524.071899 716.671997,524.292725 716.488220,524.513550 
	C716.317261,524.284363 716.146362,524.055115 715.975403,523.825928 
	C716.260986,523.747009 716.546631,523.668091 716.935852,523.720093 
z"/>
</svg>