<svg version="1.1" xmlns="http://www.w3.org/2000/svg" viewBox="0 0 1024 1024" style="background:transparent;">
  <!-- Unified Arrow -->
  <path d="M599.00,394.38 L671.12,395.75 L786.62,502.25 L756.62,530.75 L750.88,530.75 L752.38,535.25 L668.75,610.62 L594.25,609.88 L704.12,502.25 L595.38,396.50 L599.00,394.38 Z" fill="#000000" />
  
  <!-- Perfect Circles -->
  <circle cx="537.69" cy="477.71" r="8.14" fill="#000000" /><circle cx="513.63" cy="502.62" r="8.59" fill="#000000" /><circle cx="540.18" cy="527.69" r="7.98" fill="#000000" /><circle cx="515.02" cy="554.05" r="7.74" fill="#000000" /><circle cx="512.94" cy="451.01" r="8.33" fill="#000000" /><circle cx="537.20" cy="427.37" r="8.57" fill="#000000" /><circle cx="462.16" cy="505.69" r="8.05" fill="#000000" /><circle cx="514.66" cy="578.84" r="8.04" fill="#000000" /><circle cx="472.55" cy="570.93" r="7.46" fill="#000000" /><circle cx="491.93" cy="529.92" r="8.03" fill="#000000" /><circle cx="442.06" cy="541.14" r="7.68" fill="#000000" /><circle cx="482.33" cy="426.83" r="8.13" fill="#000000" /><circle cx="485.98" cy="475.64" r="7.97" fill="#000000" /><circle cx="593.89" cy="477.80" r="7.72" fill="#000000" /><circle cx="570.10" cy="477.77" r="7.65" fill="#000000" /><circle cx="436.59" cy="477.10" r="8.11" fill="#000000" /><circle cx="565.88" cy="427.65" r="7.16" fill="#000000" /><circle cx="618.65" cy="478.29" r="7.27" fill="#000000" /><circle cx="566.04" cy="504.02" r="7.20" fill="#000000" /><circle cx="541.70" cy="553.50" r="7.10" fill="#000000" /><circle cx="592.75" cy="503.03" r="7.79" fill="#000000" /><circle cx="398.22" cy="553.60" r="7.34" fill="#000000" /><circle cx="407.70" cy="509.91" r="7.39" fill="#000000" /><circle cx="592.13" cy="453.54" r="7.73" fill="#000000" /><circle cx="566.69" cy="578.95" r="7.92" fill="#000000" /><circle cx="566.41" cy="452.92" r="7.75" fill="#000000" /><circle cx="363.07" cy="531.48" r="7.95" fill="#000000" /><circle cx="567.03" cy="529.48" r="7.38" fill="#000000" /><circle cx="618.18" cy="528.71" r="7.91" fill="#000000" /><circle cx="618.73" cy="503.66" r="7.14" fill="#000000" /><circle cx="593.16" cy="553.47" r="7.11" fill="#000000" /><circle cx="567.82" cy="603.49" r="7.51" fill="#000000" /><circle cx="591.85" cy="528.66" r="7.20" fill="#000000" /><circle cx="567.24" cy="554.35" r="7.20" fill="#000000" /><circle cx="457.80" cy="448.84" r="7.90" fill="#000000" /><circle cx="669.80" cy="503.50" r="7.54" fill="#000000" /><circle cx="591.97" cy="427.37" r="7.80" fill="#000000" /><circle cx="405.29" cy="448.91" r="7.11" fill="#000000" /><circle cx="643.30" cy="478.12" r="7.52" fill="#000000" /><circle cx="426.43" cy="579.42" r="7.17" fill="#000000" /><circle cx="617.81" cy="453.05" r="6.96" fill="#000000" /><circle cx="378.92" cy="483.14" r="7.29" fill="#000000" /><circle cx="516.79" cy="604.25" r="7.30" fill="#000000" /><circle cx="328.35" cy="495.50" r="7.21" fill="#000000" /><circle cx="541.98" cy="578.73" r="7.72" fill="#000000" /><circle cx="592.48" cy="579.06" r="6.58" fill="#000000" /><circle cx="542.12" cy="604.44" r="7.25" fill="#000000" /><circle cx="618.61" cy="554.34" r="7.36" fill="#000000" /><circle cx="643.71" cy="504.02" r="7.46" fill="#000000" /><circle cx="323.52" cy="560.98" r="7.30" fill="#000000" /><circle cx="568.12" cy="401.82" r="7.52" fill="#000000" /><circle cx="540.90" cy="401.12" r="6.43" fill="#000000" /><circle cx="490.51" cy="603.79" r="7.00" fill="#000000" /><circle cx="643.63" cy="528.02" r="7.06" fill="#000000" /><circle cx="514.74" cy="401.47" r="6.97" fill="#000000" /><circle cx="456.10" cy="401.80" r="6.91" fill="#000000" /><circle cx="449.38" cy="604.29" r="7.33" fill="#000000" /><circle cx="486.13" cy="401.41" r="6.92" fill="#000000" /><circle cx="428.66" cy="423.23" r="6.93" fill="#000000" /><circle cx="282.00" cy="526.48" r="6.64" fill="#000000" /><circle cx="347.26" cy="603.25" r="6.63" fill="#000000" /><circle cx="343.83" cy="454.34" r="6.46" fill="#000000" /><circle cx="405.85" cy="401.46" r="6.28" fill="#000000" /><circle cx="373.70" cy="422.01" r="6.29" fill="#000000" /><circle cx="261.00" cy="580.12" r="5.77" fill="#000000" /><circle cx="321.13" cy="419.92" r="5.89" fill="#000000" /><circle cx="382.72" cy="590.93" r="5.46" fill="#000000" /><circle cx="361.18" cy="375.65" r="5.16" fill="#000000" /><circle cx="287.07" cy="458.11" r="5.36" fill="#000000" /><circle cx="257.76" cy="404.42" r="4.74" fill="#000000" /><circle cx="188.82" cy="453.82" r="3.90" fill="#000000" /><circle cx="235.47" cy="481.87" r="3.40" fill="#000000" /><circle cx="217.36" cy="537.30" r="3.98" fill="#000000" /><circle cx="753.72" cy="532.40" r="2.07" fill="#000000" /><circle cx="765.73" cy="522.06" r="1.16" fill="#000000" /><circle cx="742.46" cy="544.08" r="1.07" fill="#000000" /><circle cx="671.30" cy="535.31" r="0.41" fill="#000000" /><circle cx="672.34" cy="534.36" r="0.39" fill="#000000" /><circle cx="656.29" cy="454.82" r="0.47" fill="#000000" /><circle cx="740.60" cy="524.40" r="3.31" fill="#000000" /><circle cx="716.46" cy="524.09" r="0.45" fill="#000000" />
</svg>